<svg width="44" height="44" viewBox="0 0 44 44" fill="none" xmlns="http://www.w3.org/2000/svg">
<g clip-path="url(#clip0_1_180)">
<path d="M22 0C9.84984 0 0 9.84984 0 22C0 32.3171 7.10336 40.9746 16.6857 43.3523V28.7232H12.1493V22H16.6857V19.103C16.6857 11.6151 20.0746 8.1444 27.4261 8.1444C28.82 8.1444 31.225 8.41808 32.2089 8.69088V14.7849C31.6897 14.7303 30.7877 14.703 29.6674 14.703C26.0603 14.703 24.6664 16.0697 24.6664 19.6222V22H31.8525L30.6178 28.7232H24.6664V43.839C35.5599 42.5234 44.0009 33.2482 44.0009 22C44 9.84984 34.1502 0 22 0Z" fill="black"/>
</g>
<defs>
<clipPath id="clip0_1_180">
<rect width="44" height="44" fill="white"/>
</clipPath>
</defs>
</svg>
