<svg width="174" height="60" viewBox="0 0 174 60" fill="none" xmlns="http://www.w3.org/2000/svg">
<path d="M19.0205 3.58496C19.5786 3.20085 19.965 3.0088 20.1797 3.0088C20.3943 2.96612 20.8666 3.07282 21.5964 3.32889C22.3263 3.62763 22.8844 4.09709 23.2707 4.73726C23.7001 5.37743 24.1079 5.95359 24.4943 6.46572C24.8807 6.80715 25.0739 7.08455 25.0739 7.29795C25.0739 7.51134 24.9665 7.95946 24.7519 8.6423C24.3655 9.53854 24.1723 11.3097 24.1723 13.9557C24.1723 16.1323 24.2582 17.3913 24.4299 17.7327C24.6445 18.0742 25.31 18.2449 26.4262 18.2449C27.199 18.2449 28.0576 18.3729 29.0021 18.629C31.4062 19.3118 33.8748 19.6532 36.4077 19.6532C37.4381 19.6532 38.8763 20.016 40.7223 20.7415C42.6113 21.4671 43.8134 22.1286 44.3286 22.7261C44.5432 22.9821 44.6506 23.6223 44.6506 24.6466C44.6506 25.6708 44.5432 26.6951 44.3286 27.7194C44.1139 28.6583 43.9422 30.0453 43.8134 31.8805C43.7275 33.673 43.5343 34.8893 43.2338 35.5295C42.9762 36.1696 42.8474 36.7031 42.8474 37.1299C42.8474 37.5567 42.6328 38.5383 42.2035 40.0747C41.8171 41.6111 41.5595 42.7634 41.4307 43.5316C41.1731 44.812 40.6365 46.071 39.8208 47.3086L38.5972 49.4852C37.9533 50.5948 37.4166 51.3417 36.9873 51.7258C36.6009 52.0672 36.2575 52.5153 35.957 53.0702C35.6564 53.6676 35.3344 54.1584 34.991 54.5425C33.6601 55.9509 32.7371 56.7405 32.2219 56.9112C31.7497 57.0819 31.1272 56.7618 30.3544 55.9509C29.8822 55.4815 29.2382 54.9907 28.4225 54.4785C27.6068 54.0091 27.0058 53.7743 26.6194 53.7743C26.4047 53.7743 26.1042 53.4543 25.7178 52.8141C25.3744 52.2166 25.1383 51.6618 25.0095 51.1496C24.8807 50.6802 25.0309 50.3814 25.4602 50.2534C26.233 50.04 26.0398 49.8693 24.8807 49.7413C24.1508 49.6132 22.9917 49.5279 21.4032 49.4852C19.1279 49.3145 17.475 49.2931 16.4447 49.4212C15.4572 49.5492 14.384 49.8906 13.2248 50.4455C12.495 50.7442 11.9798 51.0643 11.6793 51.4057C11.3788 51.7045 10.9494 52.3873 10.3913 53.4543C10.005 54.1371 9.7259 54.5425 9.55418 54.6706C9.38245 54.8413 9.06047 54.9266 8.58822 54.9266C7.77253 54.9266 7.10709 54.7346 6.59191 54.3505C6.07674 54.0091 5.56156 53.3689 5.04638 52.43C4.44535 51.3204 4.08043 49.912 3.95163 48.2049C3.86577 46.4977 3.71551 45.5161 3.50086 45.2601C3.32913 45.004 3.26473 43.9371 3.30766 42.0592C3.3506 40.1387 3.26473 38.4956 3.05008 37.1299L2.27731 32.2006C1.97679 30.2801 1.67627 29.0211 1.37575 28.4236C1.07524 27.7834 0.924975 27.1859 0.924975 26.6311C0.924975 26.0336 0.774716 25.3721 0.474196 24.6466C0.087814 23.7503 -0.0624457 23.1742 0.0234172 22.9181C0.152211 22.662 0.560059 22.534 1.24696 22.534C2.10559 22.534 3.11447 22.2566 4.27362 21.7018C6.46312 20.5495 9.23219 19.6319 12.5808 18.9491L16.1227 18.3089L17.0242 18.1168L17.2818 12.6754C17.4106 9.1331 17.5609 7.10589 17.7326 6.59376C17.9473 6.03894 18.0546 5.48413 18.0546 4.92931C18.0546 4.3745 18.3766 3.92638 19.0205 3.58496ZM17.0242 21.3177L15.9295 21.1896C15.3714 21.1896 14.0405 21.4244 11.9369 21.8938C9.83323 22.3633 8.3521 22.7901 7.49347 23.1742C6.76364 23.4302 6.31286 23.6863 6.14113 23.9424C6.01234 24.1558 6.11967 24.5399 6.46312 25.0947C7.19295 26.5884 7.62227 27.5914 7.75106 28.1035C7.92279 28.6156 7.98718 29.3412 7.94425 30.2801C7.90132 32.2433 8.11598 33.2249 8.58822 33.2249C8.71702 33.2249 8.78141 33.0541 8.78141 32.7127C8.78141 32.3713 9.06047 31.9445 9.61857 31.4324C10.2196 30.9202 10.7563 30.6428 11.2285 30.6002C14.7059 29.9173 16.4876 29.5119 16.5735 29.3838C16.7881 29.2131 16.9169 27.5487 16.9598 24.3905L17.0242 21.3177ZM31.0628 22.406C26.8984 21.1256 24.6875 20.8055 24.4299 21.4457C24.344 21.7018 24.3011 22.8754 24.3011 24.9667L24.1723 28.1035L25.7178 27.9114C26.7053 27.7834 27.6283 27.8474 28.4869 28.1035C29.3455 28.3169 29.8178 28.6583 29.9036 29.1278C30.0324 29.5972 30.0324 29.9387 29.9036 30.152C29.7748 30.3228 29.8607 30.5788 30.1612 30.9202C30.3759 31.1763 30.4617 31.411 30.4188 31.6244C30.4188 31.8378 30.29 32.2433 30.0324 32.8408C29.2167 34.5052 28.1649 35.124 26.877 34.6973C26.1471 34.5265 25.4388 34.4412 24.7519 34.4412H23.7215L23.6571 37.386C23.6571 39.3065 23.5498 40.6295 23.3351 41.355C23.1634 42.0379 23.0346 42.6354 22.9488 43.1475L22.82 43.9157H24.6875C26.7052 43.9157 27.9932 44.3852 28.5513 45.3241C28.8518 45.7935 28.6372 46.9245 27.9073 48.717C27.7356 49.0584 27.8644 49.2078 28.2937 49.1651C28.5942 49.1651 29.0665 49.0584 29.7104 48.845C30.1827 48.717 30.5261 48.5249 30.7408 48.2689C30.9984 47.9701 31.3418 47.4153 31.7711 46.6044C33.0591 43.745 33.9821 41.0136 34.5402 38.4102C35.1413 35.8069 35.5491 32.3926 35.7638 28.1675L35.8926 24.3265L35.1842 23.8784C34.7119 23.6223 33.3381 23.1315 31.0628 22.406ZM16.5091 35.7215C16.5091 35.3801 16.4661 35.1667 16.3803 35.0814C16.2944 34.9533 16.1012 34.868 15.8007 34.8253C15.3284 34.7399 14.7918 34.8466 14.1908 35.1454C13.5897 35.4441 13.1175 35.5935 12.774 35.5935C12.4306 35.5935 11.9369 35.8496 11.2929 36.3617C10.6489 36.8738 10.1123 37.3006 9.68297 37.642C9.42538 37.8128 9.27512 37.9835 9.23219 38.1542C9.18926 38.2822 9.25366 38.5383 9.42538 38.9224C9.64004 39.5199 9.81176 40.4375 9.94056 41.6751C10.1123 42.9128 10.284 43.937 10.4557 44.7479C10.5416 45.2601 10.6489 45.5802 10.7777 45.7082C10.9494 45.7935 11.25 45.8362 11.6793 45.8362C12.3662 45.8362 13.2677 45.7082 14.384 45.4521L15.9295 45.132L16.1871 40.8429L16.5091 35.7215Z" fill="black"/>
<path d="M89.8573 45.004C89.6855 44.7053 90.673 44.7053 92.8195 45.004C93.8928 45.1747 94.7729 45.2814 95.4598 45.3241C96.1467 45.3241 96.4902 45.4094 96.4902 45.5802C96.4902 45.7082 96.9839 45.9429 97.9713 46.2843C100.719 47.3513 101.663 48.845 100.805 50.7655C100.247 52.0886 99.4095 52.7927 98.2933 52.8781C97.6922 52.9208 97.22 52.8781 96.8765 52.7501C96.5331 52.622 96.1252 52.3233 95.653 51.8538C95.1807 51.427 94.5582 50.9149 93.7855 50.3174C93.0127 49.6772 92.0682 48.8023 90.952 47.6927C89.8358 46.5404 89.2777 45.9002 89.2777 45.7722C89.2777 45.6015 89.385 45.4735 89.5997 45.3881C89.8573 45.2601 89.9431 45.132 89.8573 45.004ZM72.0837 44.1718C72.5559 43.617 72.8779 43.4036 73.0496 43.5316C73.2214 43.6596 73.3072 44.1504 73.3072 45.004C73.2643 45.8576 73.3287 46.4551 73.5004 46.7965C73.6721 47.1379 73.8224 47.9915 73.9512 49.3572C74.08 51.7045 73.5219 53.3262 72.2769 54.2225C71.7617 54.5639 71.3109 54.6919 70.9245 54.6066C70.5382 54.5639 70.1088 54.2651 69.6366 53.7103C69.2931 53.2409 69.0785 52.8568 68.9926 52.558C68.9497 52.2593 68.9282 51.5978 68.9282 50.5735C68.9712 49.6346 69.0141 48.9944 69.057 48.653C69.1429 48.2689 69.3361 47.8634 69.6366 47.4367C70.7099 45.8576 71.5256 44.7693 72.0837 44.1718ZM89.5353 34.0571C90.4368 34.0571 91.0593 33.9931 91.4028 33.865C91.7462 33.6943 92.2829 33.6303 93.0127 33.673C93.485 33.673 93.8284 33.737 94.0431 33.865C94.2577 33.9931 94.5582 34.3132 94.9446 34.8253C96.3184 36.7031 96.0823 37.8341 94.2363 38.2182C93.6782 38.3035 93.2059 38.4743 92.8195 38.7303C92.4761 38.9864 92.0038 39.0077 91.4028 38.7943C90.8447 38.581 89.6211 38.581 87.7322 38.7943C85.328 39.0504 84.1045 39.2638 84.0615 39.4345C84.0615 39.5199 84.3406 39.84 84.8987 40.3948L85.8646 41.4831L85.929 46.1563L86.1222 53.1982C86.1222 54.7346 86.0149 55.5882 85.8002 55.7589C85.5856 55.9723 85.4783 56.2923 85.4783 56.7191C85.4783 57.1459 85.2851 57.5513 84.8987 57.9354C84.5123 58.3195 84.2547 58.7037 84.1259 59.0878C84.0401 59.5145 83.8039 59.7706 83.4176 59.856C83.0741 59.984 82.4516 60.0267 81.55 59.984C80.7773 59.9413 80.305 59.8773 80.1333 59.7919C80.0045 59.7066 79.8757 59.4719 79.7469 59.0878C79.5752 58.5329 79.0815 57.8074 78.2658 56.9112C77.4501 56.0576 77.0423 55.4815 77.0423 55.1827C77.0423 54.884 76.6988 54.5212 76.0119 54.0944C75.1533 53.4116 74.724 52.8994 74.724 52.558C74.724 52.3873 75.1318 52.5153 75.9475 52.9421C76.7632 53.3689 77.6862 53.5823 78.7166 53.5823C79.8757 53.625 80.5626 53.4116 80.7773 52.9421C80.9919 52.5153 81.0993 50.9576 81.0993 48.2689C81.1422 45.1961 81.0778 43.1048 80.9061 41.9952C80.8202 41.1843 80.7129 40.7149 80.5841 40.5868C80.4982 40.4161 80.305 40.3734 80.0045 40.4588C79.3605 40.6295 78.6307 40.8856 77.815 41.227C77.0423 41.5257 76.5485 41.7605 76.3339 41.9312C76.1192 42.1446 75.9046 42.2513 75.6899 42.2513C75.4323 42.2513 74.5093 42.0165 72.9208 41.5471C71.3753 41.0349 70.5596 40.7149 70.4738 40.5868C70.0874 40.2027 70.8601 39.5412 72.792 38.6023C76.6129 36.8098 80.9705 35.4441 85.8646 34.5052C87.3243 34.2491 88.5479 34.0998 89.5353 34.0571ZM84.2547 25.9909C85.1992 25.7349 86.2081 25.7989 87.2814 26.183C87.8395 26.3537 88.14 26.7591 88.1829 27.3993C88.2688 28.0395 88.0971 28.7863 87.6678 29.6399C87.3243 30.1947 87.0023 30.5788 86.7018 30.7922C86.4442 31.0056 86.0149 31.0696 85.4139 30.9843C84.7699 30.9416 83.6966 31.0696 82.194 31.3684C80.348 31.7098 79.06 31.8805 78.3302 31.8805C77.6004 31.8378 76.9564 31.6244 76.3983 31.2403C76.0119 30.9416 75.7758 30.7069 75.6899 30.5361C75.647 30.3654 75.6899 30.1094 75.8187 29.7679C75.9904 29.2131 76.1622 28.8504 76.3339 28.6796C76.5485 28.5089 77.1925 28.2102 78.2658 27.7834C79.382 27.3566 80.4553 27.0152 81.4856 26.7591C82.5589 26.4604 83.482 26.2043 84.2547 25.9909ZM81.7432 0.448118C82.516 0.149372 82.9239 0 82.9668 0C83.0097 0 83.2244 0.128034 83.6107 0.384101C84.0401 0.640169 84.4694 1.42971 84.8987 2.75273C85.2421 3.77701 85.4139 4.54521 85.4139 5.05735C85.4139 5.52681 85.2421 5.93225 84.8987 6.27367C84.684 6.52974 84.405 7.19125 84.0615 8.2582C83.7181 9.32515 83.5463 10.0934 83.5463 10.5628C83.5463 10.8189 83.8898 10.9469 84.5767 10.9469C85.2636 10.9469 86.5301 10.8189 88.3761 10.5628C90.2222 10.2641 91.6174 10.008 92.5619 9.79461C93.5064 9.58122 94.6656 9.47453 96.0394 9.47453C96.9409 9.47453 97.5205 9.49586 97.7781 9.53854C98.0786 9.58122 98.3577 9.73059 98.6153 9.98666C98.9587 10.3708 99.2163 10.9042 99.388 11.5871C99.5597 12.2699 99.5383 12.7821 99.3236 13.1235C99.066 13.5503 98.6582 13.9557 98.1001 14.3398C97.5849 14.7239 97.1341 14.916 96.7477 14.916C96.2755 14.916 95.6959 14.6812 95.009 14.2118C94.5368 13.913 94.1075 13.721 93.7211 13.6356C93.3347 13.5503 92.519 13.5076 91.274 13.5076C89.2562 13.4222 88.2259 13.5289 88.1829 13.8277C88.1829 14.0411 88.5479 14.5319 89.2777 15.3001C92.4117 18.5863 93.9787 20.3147 93.9787 20.4855C93.9787 20.6135 94.5582 21.275 95.7174 22.47C96.8765 23.665 97.5634 24.4332 97.7781 24.7746C97.9927 25.0734 98.7226 25.7349 99.9676 26.7591C101.256 27.7834 102.372 28.573 103.316 29.1278C104.304 29.8106 105.42 30.3868 106.665 30.8562C108.339 31.4537 109.82 32.0299 111.108 32.5847C112.182 33.0541 112.783 33.2889 112.911 33.2889C113.083 33.2889 113.641 33.6303 114.586 34.3132C115.53 34.996 116.088 35.4228 116.26 35.5935C116.475 35.9349 116.453 36.2337 116.196 36.4897C115.938 36.7458 115.509 36.9165 114.908 37.0019C112.675 37.2153 110.829 37.7274 109.37 38.5383C108.425 39.0504 107.781 39.3065 107.438 39.3065C107.094 39.3065 106.278 39.0077 104.991 38.4102C103.746 37.7701 102.78 37.1939 102.093 36.6818C101.363 36.0843 100.891 35.7855 100.676 35.7855C100.504 35.7855 99.9032 35.4014 98.8728 34.6332C97.8854 33.865 97.1127 33.1822 96.5546 32.5847C94.5368 30.5361 93.5279 29.4052 93.5279 29.1918C93.5279 29.1064 93.0556 28.4236 92.1112 27.1432C90.1792 24.5826 88.9128 22.7474 88.3117 21.6378C88.2259 21.4244 87.7751 20.6135 86.9594 19.2051C86.1437 17.7967 85.7359 17.0285 85.7359 16.9005C85.7359 16.7298 85.5212 16.2603 85.0919 15.4921C84.6626 14.7239 84.3835 14.3185 84.2547 14.2758C84.083 14.1905 83.6966 14.1905 83.0956 14.2758C82.5375 14.3612 82.1725 14.6172 82.0008 15.044C81.8291 15.4281 81.5286 15.9616 81.0993 16.6444C80.67 17.3273 80.4553 17.7541 80.4553 17.9248C80.4553 18.0955 80.1977 18.7357 79.6825 19.8453C79.2103 20.9122 78.9742 21.5097 78.9742 21.6378C78.9742 21.7231 78.781 21.9792 78.3946 22.406C78.0082 22.8328 77.6433 23.4302 77.2998 24.1985C77.0852 24.6679 76.1622 25.7989 74.5308 27.5914C72.9423 29.3838 71.6114 30.7495 70.5382 31.6884L69.2502 32.8408C68.8209 33.2675 68.2199 33.6516 67.4471 33.9931C66.7173 34.3345 65.923 34.8253 65.0644 35.4655C64.2487 36.1056 63.3472 36.7031 62.3597 37.2579C58.9252 39.2211 57.1436 40.032 57.0148 39.6906C56.9718 39.6479 56.9504 39.6052 56.9504 39.5625C56.9504 39.3918 57.0362 39.3065 57.208 39.3065C57.3797 39.3065 57.4656 39.2211 57.4656 39.0504C57.4656 38.5383 59.8697 36.2977 64.678 32.3286C65.4508 31.6884 66.3953 30.7282 67.5115 29.4479C68.6277 28.1248 69.3146 27.1646 69.5722 26.5671C69.7868 26.183 70.2162 25.5001 70.8601 24.5185C71.5041 23.5369 71.9334 22.9181 72.1481 22.662C72.4057 22.406 73.0711 21.1256 74.1444 18.821C75.2606 16.5164 75.7758 15.3214 75.6899 15.2361C75.647 15.1934 75.2177 15.2787 74.402 15.4921C73.5863 15.6628 72.9852 15.8762 72.5989 16.1323C72.2125 16.303 71.9334 16.3884 71.7617 16.3884C71.6329 16.3457 71.3324 16.1963 70.8601 15.9403C70.302 15.5561 70.023 15.3428 70.023 15.3001C70.023 15.2147 70.1088 14.98 70.2806 14.5959C70.4094 14.1691 70.7099 13.8704 71.1821 13.6997C71.6544 13.4863 72.7491 13.1448 74.4664 12.6754L77.1067 12.0352L77.6218 10.9469C78.3946 9.41051 78.9956 7.70339 79.4249 5.82555C79.6825 4.50253 79.9401 3.32889 80.1977 2.30462C80.4124 1.62177 80.5841 1.19498 80.7129 1.02427C80.8846 0.810881 81.2281 0.61883 81.7432 0.448118Z" fill="black"/>
<path d="M141.246 27.1432C141.246 26.6311 141.203 26.375 141.117 26.375C140.946 26.375 140.752 26.7165 140.538 27.3993C139.765 29.3625 137.962 35.4868 135.128 45.7722C134.699 47.2659 134.248 48.0128 133.776 48.0128C133.561 48.0128 133.175 47.8421 132.617 47.5007C130.427 45.9216 129.333 43.9797 129.333 41.6751C129.333 39.84 129.633 37.3433 130.234 34.1851C130.921 30.2587 131.265 28.1462 131.265 27.8474C131.265 27.506 131.2 27.3353 131.071 27.3353C130.985 27.3353 130.835 27.5487 130.621 27.9755C128.431 33.1822 127.1 39.3918 126.628 46.6044C126.542 47.8848 126.113 48.5249 125.34 48.5249C124.31 48.5249 123.387 47.9274 122.571 46.7325C121.068 44.5986 120.317 42.2086 120.317 39.5625C120.317 37.8981 120.51 35.7855 120.897 33.2249C121.326 30.6642 121.584 29.1064 121.669 28.5516C122.399 24.0704 123.065 21.8298 123.666 21.8298C124.138 21.8298 124.503 22.4487 124.76 23.6863C125.018 24.8813 125.147 25.7562 125.147 26.311C125.147 26.8658 125.233 27.1432 125.404 27.1432C125.877 27.1432 126.349 26.6524 126.821 25.6708C127.293 24.6466 127.873 23.6436 128.56 22.662C129.247 21.6378 130.084 21.1256 131.071 21.1256C132.102 21.1256 133.046 21.5097 133.905 22.2779C134.763 23.0035 135.3 23.8997 135.515 24.9667C136.03 24.2411 136.889 23.2382 138.091 21.9579C138.735 21.0616 139.379 20.6135 140.023 20.6135C140.709 20.6135 141.697 20.9336 142.985 21.5738C144.745 22.47 145.625 24.8173 145.625 28.6156C145.625 32.414 145.496 35.6788 145.239 38.4102V38.8584C145.239 39.4985 145.367 39.8186 145.625 39.8186C146.011 39.8186 146.956 38.7517 148.459 36.6178C149.961 34.4412 150.884 33.3529 151.228 33.3529C151.829 33.3529 152.129 34.8893 152.129 37.9621C152.129 40.9923 151.034 44.0224 148.845 47.0525C147.815 48.4609 146.934 49.1651 146.205 49.1651L145.496 48.9731C143.779 48.0768 142.555 47.0525 141.826 45.9002C141.096 44.7479 140.731 42.9128 140.731 40.3948L141.246 27.1432Z" fill="black"/>
<path d="M157.643 21.8298C157.643 21.4884 157.708 21.275 157.836 21.1896C158.008 21.0616 158.201 20.9549 158.416 20.8696C158.674 20.7415 158.824 20.6562 158.867 20.6135C162.731 18.565 165.5 15.4921 167.174 11.395C167.303 11.139 167.367 10.7975 167.367 10.3708C167.367 9.7306 166.809 9.41051 165.693 9.41051C165.178 9.41051 164.77 9.43185 164.469 9.47453C164.383 10.7549 163.181 11.8858 160.863 12.8674C158.588 13.8063 157.3 14.2758 156.999 14.2758C155.625 14.2758 154.938 12.9101 154.938 10.1787L155.132 7.1059C155.175 6.20965 155.604 5.56948 156.42 5.18538C157.836 4.63057 159.36 4.13977 160.992 3.71299C160.863 3.37157 160.799 3.03014 160.799 2.68872C160.799 2.34729 160.906 2.17658 161.121 2.17658C161.378 2.17658 161.593 2.2406 161.765 2.36863C161.936 2.45399 162.129 2.64604 162.344 2.94479C162.559 3.20085 162.709 3.37157 162.795 3.45692C163.224 3.37157 163.868 3.32889 164.727 3.32889C166.358 3.32889 167.99 4.13977 169.621 5.76153C169.879 6.0176 170.201 6.46572 170.587 7.1059C171.016 7.74607 171.36 8.21552 171.617 8.51427C172.605 9.6239 173.098 11.0536 173.098 12.8034C173.098 14.5105 172.605 16.303 171.617 18.1808C170.63 20.0587 169.621 21.6164 168.591 22.8541C167.603 24.0491 167.11 24.7533 167.11 24.9667C167.11 25.18 167.668 25.8416 168.784 26.9512C169.943 28.0608 171.102 29.5332 172.261 31.3684C173.42 33.2035 174 34.996 174 36.7458C174 38.4956 173.571 40.2241 172.712 41.9312C170.737 45.8576 167.088 48.3969 161.765 49.5492C161.121 49.6772 160.52 49.7413 159.961 49.7413C159.446 49.7413 158.931 49.6772 158.416 49.5492C157.944 49.4212 157.536 49.1864 157.192 48.845C156.849 48.5036 156.527 48.2049 156.226 47.9488C155.969 47.6927 155.754 47.2659 155.582 46.6684C155.411 46.071 155.26 45.6228 155.132 45.3241C155.003 45.0253 154.896 44.4919 154.81 43.7237C154.724 42.9555 154.681 42.4647 154.681 42.2513C154.552 41.0563 154.488 40.032 154.488 39.1784V38.7943C154.488 37.7274 155.11 37.0445 156.355 36.7458C157.128 36.5751 158.223 36.4044 159.639 36.2337C161.056 36.0203 161.936 35.8709 162.28 35.7855C162.666 35.7002 162.945 35.6575 163.117 35.6575C163.289 35.6575 163.375 35.8282 163.375 36.1696C163.375 36.4684 162.967 37.1939 162.151 38.3462C161.335 39.4985 160.927 40.1387 160.927 40.2667C160.927 40.3521 160.992 40.3948 161.121 40.3948C161.292 40.3948 161.571 40.3308 161.958 40.2027C165.607 38.9224 167.432 36.9379 167.432 34.2491C167.432 32.9688 166.916 31.8165 165.886 30.7922C164.899 29.7253 163.761 29.1918 162.473 29.1918C162.001 29.1918 161.314 29.3838 160.412 29.7679C159.511 30.1094 158.867 30.2801 158.48 30.2801C158.094 30.2801 157.858 30.0027 157.772 29.4479C157.729 28.893 157.708 27.9541 157.708 26.6311L157.643 21.8298Z" fill="white"/>
</svg>
